<svg width="30" height="27" viewBox="0 0 30 27" fill="none" xmlns="http://www.w3.org/2000/svg">
<path d="M28.7419 18.6198H9.551L10.5146 16.6572L26.5247 16.6282C27.0661 16.6282 27.5302 16.2415 27.6269 15.7065L29.8441 3.29609C29.9021 2.97061 29.8151 2.63545 29.6024 2.38086C29.4972 2.25556 29.3661 2.15463 29.2181 2.08507C29.0701 2.01551 28.9087 1.97899 28.7451 1.97803L8.37795 1.91035L8.20393 1.0918C8.09436 0.569727 7.62385 0.189453 7.08889 0.189453H2.10989C1.80818 0.189453 1.51883 0.309307 1.30548 0.522648C1.09214 0.735989 0.97229 1.02534 0.97229 1.32705C0.97229 1.62876 1.09214 1.91811 1.30548 2.13145C1.51883 2.34479 1.80818 2.46465 2.10989 2.46465H6.16721L6.92776 6.08047L8.80012 15.1458L6.38957 19.0807C6.26439 19.2496 6.18899 19.4502 6.17191 19.6598C6.15482 19.8694 6.19673 20.0796 6.2929 20.2666C6.48625 20.6501 6.8762 20.8918 7.30803 20.8918H9.33186C8.9004 21.4649 8.66736 22.1629 8.66799 22.8802C8.66799 24.7042 10.1504 26.1866 11.9744 26.1866C13.7985 26.1866 15.2809 24.7042 15.2809 22.8802C15.2809 22.1615 15.0424 21.4622 14.617 20.8918H19.8087C19.3773 21.4649 19.1442 22.1629 19.1448 22.8802C19.1448 24.7042 20.6273 26.1866 22.4513 26.1866C24.2753 26.1866 25.7577 24.7042 25.7577 22.8802C25.7577 22.1615 25.5193 21.4622 25.0939 20.8918H28.7451C29.3703 20.8918 29.8827 20.3826 29.8827 19.7542C29.8809 19.4528 29.7599 19.1644 29.5461 18.9519C29.3324 18.7394 29.0433 18.62 28.7419 18.6198ZM8.85168 4.15332L27.4077 4.21455L25.5902 14.3917L11.0141 14.4175L8.85168 4.15332ZM11.9744 23.8985C11.4137 23.8985 10.9561 23.4409 10.9561 22.8802C10.9561 22.3194 11.4137 21.8618 11.9744 21.8618C12.5352 21.8618 12.9928 22.3194 12.9928 22.8802C12.9928 23.1503 12.8855 23.4093 12.6945 23.6003C12.5035 23.7912 12.2445 23.8985 11.9744 23.8985ZM22.4513 23.8985C21.8905 23.8985 21.4329 23.4409 21.4329 22.8802C21.4329 22.3194 21.8905 21.8618 22.4513 21.8618C23.012 21.8618 23.4697 22.3194 23.4697 22.8802C23.4697 23.1503 23.3624 23.4093 23.1714 23.6003C22.9804 23.7912 22.7214 23.8985 22.4513 23.8985Z" fill="black"/>
</svg>
